<svg width="50" height="50" viewBox="0 0 42 42" fill="none" xmlns="http://www.w3.org/2000/svg">
<path d="M21 41C32.0457 41 41 32.0457 41 21C41 9.9543 32.0457 1 21 1C9.9543 1 1 9.9543 1 21C1 32.0457 9.9543 41 21 41Z" stroke="black" stroke-linecap="round" stroke-linejoin="round"/>
<path d="M20.9997 23.2222C24.6816 23.2222 27.6663 20.2375 27.6663 16.5556C27.6663 12.8737 24.6816 9.88892 20.9997 9.88892C17.3178 9.88892 14.333 12.8737 14.333 16.5556C14.333 20.2375 17.3178 23.2222 20.9997 23.2222Z" stroke="black" stroke-linecap="round" stroke-linejoin="round"/>
<path d="M8.04004 36.22C8.59006 34.3894 9.71552 32.7848 11.2495 31.6444C12.7834 30.5039 14.6441 29.8883 16.5556 29.8889H25.4445C27.3584 29.8882 29.2214 30.5053 30.7565 31.6484C32.2915 32.7915 33.4166 34.3995 33.9645 36.2333" stroke="black" stroke-linecap="round" stroke-linejoin="round"/>
</svg>
