<svg width="20" height="20" viewBox="0 0 20 20" fill="none" xmlns="http://www.w3.org/2000/svg">
<path d="M17.0625 9.05701H5.94375L9.34688 5.6316C9.50601 5.47116 9.58256 5.26432 9.55971 5.05657C9.53685 4.84883 9.41645 4.6572 9.225 4.52385C9.03355 4.39049 8.78672 4.32633 8.53882 4.34549C8.29092 4.36464 8.06225 4.46554 7.90312 4.62598L3.21563 9.33984C3.18409 9.37734 3.15589 9.41673 3.13125 9.45769C3.13125 9.49697 3.13125 9.52054 3.06563 9.55982C3.02313 9.6499 3.00088 9.74579 3 9.84265C3.00088 9.93952 3.02313 10.0354 3.06563 10.1255C3.06563 10.1648 3.06562 10.1883 3.13125 10.2276C3.15589 10.2686 3.18409 10.308 3.21563 10.3455L7.90312 15.0593C7.99127 15.148 8.10165 15.2193 8.22642 15.2682C8.35118 15.3171 8.48727 15.3423 8.625 15.3422C8.84405 15.3425 9.05633 15.2786 9.225 15.1615C9.31993 15.0955 9.3984 15.0145 9.45592 14.9231C9.51344 14.8317 9.54887 14.7317 9.56019 14.6288C9.57151 14.5259 9.5585 14.4221 9.52189 14.3234C9.48529 14.2248 9.42581 14.1331 9.34688 14.0537L5.94375 10.6283H17.0625C17.3111 10.6283 17.5496 10.5455 17.7254 10.3982C17.9012 10.2509 18 10.051 18 9.84265C18 9.63429 17.9012 9.43446 17.7254 9.28712C17.5496 9.13978 17.3111 9.05701 17.0625 9.05701Z" fill="#E5F5FF"/>
</svg>
