<svg width="32" height="32" viewBox="0 0 32 32" fill="none" xmlns="http://www.w3.org/2000/svg">
<path d="M9.00896 9.27695C9.09902 9.18398 9.20601 9.11021 9.3238 9.05988C9.44159 9.00955 9.56787 8.98364 9.69539 8.98364C9.82292 8.98364 9.9492 9.00955 10.067 9.05988C10.1848 9.11021 10.2918 9.18398 10.3818 9.27695L15.5126 14.5624L20.6434 9.27695C20.7336 9.18413 20.8406 9.11049 20.9584 9.06026C21.0762 9.01002 21.2024 8.98417 21.3299 8.98417C21.4574 8.98417 21.5836 9.01002 21.7014 9.06026C21.8192 9.11049 21.9262 9.18413 22.0163 9.27695C22.1065 9.36978 22.178 9.47998 22.2267 9.60126C22.2755 9.72254 22.3006 9.85253 22.3006 9.9838C22.3006 10.1151 22.2755 10.2451 22.2267 10.3663C22.178 10.4876 22.1065 10.5978 22.0163 10.6907L16.8836 15.9741L22.0163 21.2575C22.1065 21.3503 22.178 21.4605 22.2267 21.5818C22.2755 21.7031 22.3006 21.833 22.3006 21.9643C22.3006 22.0956 22.2755 22.2256 22.2267 22.3469C22.178 22.4681 22.1065 22.5783 22.0163 22.6712C21.9262 22.764 21.8192 22.8376 21.7014 22.8879C21.5836 22.9381 21.4574 22.964 21.3299 22.964C21.2024 22.964 21.0762 22.9381 20.9584 22.8879C20.8406 22.8376 20.7336 22.764 20.6434 22.6712L15.5126 17.3858L10.3818 22.6712C10.2917 22.764 10.1847 22.8376 10.0669 22.8879C9.94911 22.9381 9.82288 22.964 9.69539 22.964C9.56791 22.964 9.44168 22.9381 9.3239 22.8879C9.20612 22.8376 9.0991 22.764 9.00896 22.6712C8.91882 22.5783 8.84731 22.4681 8.79852 22.3469C8.74974 22.2256 8.72463 22.0956 8.72463 21.9643C8.72463 21.833 8.74974 21.7031 8.79852 21.5818C8.84731 21.4605 8.91882 21.3503 9.00896 21.2575L14.1417 15.9741L9.00896 10.6907C8.91867 10.5979 8.84703 10.4877 8.79816 10.3664C8.74928 10.2452 8.72412 10.1151 8.72412 9.9838C8.72412 9.85248 8.74928 9.72245 8.79816 9.60116C8.84703 9.47987 8.91867 9.36969 9.00896 9.27695Z" fill="black"/>
</svg>
