<svg width="24" height="26" viewBox="0 0 24 26" fill="none" xmlns="http://www.w3.org/2000/svg">
<path d="M19 12.2459H7.14L10.77 7.64972C10.9397 7.43444 11.0214 7.1569 10.997 6.87815C10.9726 6.59939 10.8442 6.34227 10.64 6.16334C10.4358 5.9844 10.1725 5.89832 9.90808 5.92402C9.64365 5.94972 9.39974 6.0851 9.23 6.30038L4.23 12.6254C4.19636 12.6757 4.16628 12.7286 4.14 12.7835C4.14 12.8362 4.14 12.8679 4.07 12.9206C4.02467 13.0415 4.00094 13.1701 4 13.3001C4.00094 13.4301 4.02467 13.5587 4.07 13.6796C4.07 13.7323 4.07 13.7639 4.14 13.8166C4.16628 13.8716 4.19636 13.9244 4.23 13.9748L9.23 20.2998C9.32402 20.4188 9.44176 20.5145 9.57485 20.5801C9.70793 20.6457 9.85309 20.6795 10 20.6793C10.2337 20.6798 10.4601 20.594 10.64 20.4368C10.7413 20.3483 10.825 20.2397 10.8863 20.117C10.9477 19.9944 10.9855 19.8601 10.9975 19.7221C11.0096 19.584 10.9957 19.4448 10.9567 19.3124C10.9176 19.18 10.8542 19.057 10.77 18.9505L7.14 14.3543H19C19.2652 14.3543 19.5196 14.2432 19.7071 14.0455C19.8946 13.8478 20 13.5797 20 13.3001C20 13.0205 19.8946 12.7524 19.7071 12.5547C19.5196 12.357 19.2652 12.2459 19 12.2459Z" fill="black"/>
</svg>
