<svg width="174" height="174" viewBox="0 0 174 174" fill="none" xmlns="http://www.w3.org/2000/svg">
<path d="M90.1069 150.386C126.144 150.386 155.357 121.172 155.357 85.1357C155.357 49.0992 126.144 19.8857 90.1069 19.8857C54.0704 19.8857 24.8569 49.0992 24.8569 85.1357C24.8569 121.172 54.0704 150.386 90.1069 150.386Z" stroke="black" stroke-width="2" stroke-linecap="round" stroke-linejoin="round"/>
<path d="M90.1069 92.3857C102.119 92.3857 111.857 82.6479 111.857 70.6357C111.857 58.6235 102.119 48.8857 90.1069 48.8857C78.0947 48.8857 68.3569 58.6235 68.3569 70.6357C68.3569 82.6479 78.0947 92.3857 90.1069 92.3857Z" stroke="black" stroke-width="2" stroke-linecap="round" stroke-linejoin="round"/>
<path d="M47.8247 134.791C49.6191 128.819 53.291 123.584 58.2955 119.863C63.3 116.142 69.3706 114.134 75.6067 114.136H104.607C110.851 114.134 116.929 116.147 121.937 119.876C126.945 123.605 130.616 128.852 132.403 134.834" stroke="black" stroke-width="2" stroke-linecap="round" stroke-linejoin="round"/>
</svg>
