<svg width="217" height="83" viewBox="0 0 217 83" fill="none" xmlns="http://www.w3.org/2000/svg">
<g clip-path="url(#clip0_6_4)">
<path d="M31.9847 0H63.976L47.9837 27.3879L31.9847 54.7825L15.9923 27.3879L0 0H31.9847Z" fill="#00A7E2"/>
<path d="M63.976 30.0557H81.5253L72.7473 15.0245L63.976 0L55.2048 15.0245L46.4268 30.0557H63.976Z" fill="#143980"/>
<path d="M15.9923 54.7825H31.9914L23.9919 41.0852L15.9923 27.3879L7.99952 41.0852L0 54.7825H15.9923Z" fill="#B9E5FB"/>
<path d="M6.80496 0H13.6099L10.2074 5.82666L6.80496 11.6533L3.40248 5.82666L0 0H6.80496Z" fill="#143980"/>
<path d="M54.9833 52.5726C55.8356 52.7518 56.6812 52.9509 57.5268 53.1699C58.3175 53.3677 59.0765 53.6737 59.7817 54.0791C60.4264 54.453 60.9735 54.9712 61.3789 55.5922C61.8194 56.33 62.0339 57.1783 61.9963 58.0343C62.0316 58.8071 61.8766 59.5769 61.5446 60.2774C61.2126 60.9779 60.7136 61.5882 60.0904 62.0559C58.822 63.0447 57.0436 63.4893 54.7686 63.4893C52.4935 63.4893 50.742 63.0115 49.4602 62.0559C48.8399 61.5864 48.3437 60.9754 48.0142 60.2751C47.6846 59.5747 47.5314 58.8059 47.5677 58.0343H49.44C49.4058 58.7088 49.5969 59.3757 49.9836 59.9323C50.3378 60.3999 50.7974 60.7794 51.3258 61.0405C51.876 61.3021 52.4652 61.4746 53.0707 61.5515C54.1835 61.7095 55.3134 61.7095 56.4262 61.5515C57.0317 61.4746 57.6208 61.3021 58.1711 61.0405C58.6951 60.7728 59.1533 60.3945 59.5133 59.9323C59.9075 59.3786 60.1036 58.7107 60.0703 58.0343C60.086 57.5623 59.9942 57.0928 59.8018 56.6606C59.6121 56.2853 59.3219 55.9685 58.963 55.7448C58.4275 55.4375 57.8547 55.1989 57.2584 55.0347C56.547 54.8223 55.6611 54.61 54.574 54.3711C53.7149 54.1985 52.8694 53.9995 52.0238 53.7805C51.2355 53.5814 50.479 53.2754 49.7756 52.8713C49.1242 52.495 48.5741 51.9692 48.1716 51.3383C47.7344 50.597 47.5224 49.7468 47.5609 48.8895C47.5253 48.1161 47.6788 47.3456 48.0082 46.6432C48.3376 45.9409 48.8334 45.3273 49.4535 44.8546C50.7151 43.8858 52.4801 43.4013 54.7619 43.4013C57.0436 43.4013 58.7885 43.8858 60.077 44.8546C60.7012 45.3244 61.2008 45.937 61.5328 46.6398C61.8648 47.3426 62.0192 48.1146 61.9829 48.8895H60.1374C60.1717 48.213 59.9756 47.5447 59.5804 46.9915C59.2253 46.5248 58.766 46.1455 58.2382 45.8833C57.6894 45.6166 57.0998 45.4417 56.4933 45.3656C55.3805 45.2076 54.2506 45.2076 53.1378 45.3656C52.5313 45.4417 51.9417 45.6166 51.3929 45.8833C50.8643 46.1442 50.4047 46.5238 50.0507 46.9915C49.7478 47.4759 49.5655 48.0244 49.5188 48.5921C49.4721 49.1597 49.5624 49.7302 49.7823 50.2566C49.997 50.6567 50.32 50.9898 50.7151 51.2188C51.2263 51.5242 51.7741 51.765 52.3459 51.9356C53.2136 52.1917 54.0939 52.4043 54.9833 52.5726Z" fill="#3B73E0"/>
<path d="M70.7677 52.6257L79.492 63.3035H77.0895L69.4859 53.9729L67.1974 56.3487V63.33H65.3318V43.5871H67.1974V53.6809L76.9016 43.5871H79.4585L70.7677 52.6257Z" fill="#3B73E0"/>
<path d="M90.5987 54.6033V63.33H88.7599V54.5237L81.0288 43.5871H83.2971L89.6927 52.7053L96.0615 43.5871H98.3298L90.5987 54.6033Z" fill="#3B73E0"/>
<path d="M139.737 43.5805L131.073 62.9584C130.995 63.117 130.874 63.2508 130.724 63.3444C130.573 63.438 130.399 63.4876 130.22 63.4876C130.042 63.4876 129.868 63.438 129.717 63.3444C129.567 63.2508 129.446 63.117 129.368 62.9584L125.61 54.5503L121.845 62.9584C121.775 63.121 121.656 63.2586 121.506 63.3534C121.355 63.4482 121.178 63.4955 121 63.4893C120.814 63.494 120.632 63.4431 120.476 63.3433C120.329 63.2503 120.212 63.1165 120.141 62.9584L111.416 43.5805H113.497L120.959 60.2973L124.563 52.2873L122.879 48.6174H124.959L130.194 60.2973L137.71 43.5805H139.737Z" fill="#3B73E0"/>
<path d="M151.494 63.4893C150.039 63.5167 148.59 63.2921 147.213 62.8257C146.015 62.4009 144.927 61.7213 144.025 60.8348C143.126 59.9446 142.438 58.8679 142.012 57.6826C141.081 54.9417 141.081 51.9754 142.012 49.2346C142.436 48.0445 143.124 46.9631 144.025 46.0691C144.927 45.1826 146.015 44.503 147.213 44.0782C149.993 43.1666 152.996 43.1666 155.776 44.0782C156.978 44.4902 158.069 45.1674 158.967 46.0585C159.864 46.9497 160.545 48.0313 160.957 49.2213C161.887 51.9622 161.887 54.9285 160.957 57.6693C160.542 58.8562 159.86 59.9345 158.963 60.823C158.065 61.7116 156.976 62.3873 155.776 62.7992C154.4 63.2746 152.951 63.5082 151.494 63.4893ZM151.494 45.2462C148.81 45.2462 146.752 45.9496 145.32 47.3565C143.888 48.7634 143.184 50.7919 143.206 53.442C143.206 56.0965 143.911 58.1361 145.32 59.5606C146.729 60.9852 148.787 61.6887 151.494 61.671C154.179 61.671 156.234 60.9675 157.662 59.5606C159.089 58.1538 159.796 56.1142 159.782 53.442C159.782 50.7875 159.075 48.759 157.662 47.3565C156.248 45.9541 154.192 45.2506 151.494 45.2462Z" fill="#3B73E0"/>
<path d="M178.902 63.33L172.426 55.3665H166.292V63.33H164.42V44.5361C164.421 44.2931 164.519 44.0605 164.692 43.8881C164.866 43.7156 165.1 43.6171 165.346 43.6136H173.936C174.714 43.6257 175.481 43.7951 176.191 44.1114C176.878 44.4239 177.505 44.8528 178.043 45.3789C178.582 45.9099 179.008 46.5415 179.298 47.2371C179.882 48.6218 179.906 50.1754 179.365 51.5772C179.116 52.2183 178.754 52.8113 178.298 53.3292C177.848 53.8444 177.313 54.2798 176.714 54.6166C176.106 54.9617 175.436 55.1871 174.741 55.2802L181.298 63.3234L178.902 63.33ZM166.292 53.5216H173.815C174.357 53.5252 174.894 53.4191 175.392 53.2097C175.877 53.0026 176.319 52.7078 176.694 52.3404C177.066 51.9721 177.365 51.5375 177.573 51.0596C177.79 50.5656 177.9 50.032 177.895 49.4934C177.899 48.9485 177.789 48.4086 177.573 47.9073C177.369 47.4287 177.07 46.9955 176.694 46.6332C176.318 46.2679 175.877 45.9753 175.392 45.7704C174.893 45.5642 174.356 45.4582 173.815 45.4585H166.299L166.292 53.5216Z" fill="#3B73E0"/>
<path d="M196.76 61.4852L196.203 63.3301H184.553C184.427 63.3337 184.302 63.3107 184.187 63.2626C184.071 63.2145 183.967 63.1425 183.882 63.0513C183.79 62.9665 183.718 62.8636 183.669 62.7492C183.621 62.6349 183.597 62.5117 183.6 62.3877V43.5805H185.465V61.4984L196.76 61.4852Z" fill="#3B73E0"/>
<path d="M206.068 63.33H201.236C201.112 63.3325 200.988 63.3096 200.872 63.2628C200.757 63.216 200.652 63.1463 200.565 63.058C200.476 62.9713 200.406 62.8679 200.359 62.7539C200.312 62.6399 200.288 62.5176 200.29 62.3943V44.4631C200.286 44.3395 200.308 44.2165 200.356 44.1022C200.403 43.9878 200.475 43.8846 200.565 43.7995C200.654 43.7142 200.759 43.6473 200.874 43.6029C200.989 43.5584 201.113 43.5373 201.236 43.5406H206.223C207.651 43.5175 209.073 43.7421 210.424 44.2043C211.603 44.6069 212.675 45.2696 213.558 46.1422C214.44 47.0149 215.11 48.0746 215.517 49.2412C215.988 50.5758 216.215 51.9824 216.188 53.3955C216.222 54.7939 215.994 56.1864 215.517 57.5034C215.079 58.6781 214.385 59.7431 213.483 60.6228C212.582 61.5024 211.496 62.1752 210.303 62.5934C208.948 63.0895 207.513 63.3391 206.068 63.33ZM202.169 61.4852H206.068C208.712 61.4852 210.75 60.7861 212.182 59.3881C213.614 57.9901 214.329 55.9992 214.329 53.4154C214.329 50.8007 213.636 48.8099 212.249 47.4428C210.862 46.0757 208.849 45.3877 206.209 45.3789H202.183L202.169 61.4852Z" fill="#3B73E0"/>
<path d="M62.607 72.3636C62.5507 71.8201 62.3037 71.3925 61.8662 71.081C61.4287 70.7661 60.8852 70.6087 60.2355 70.6087C59.7682 70.6087 59.3589 70.6882 59.0076 70.8473C58.6596 71.0031 58.3861 71.2185 58.1873 71.4936C57.9917 71.7654 57.8939 72.0769 57.8939 72.4283C57.8939 72.6967 57.9536 72.9304 58.0729 73.1293C58.1955 73.3281 58.3563 73.4972 58.5551 73.6364C58.754 73.7723 58.9711 73.8883 59.2064 73.9844C59.4417 74.0772 59.6721 74.1551 59.8975 74.218L60.9564 74.5163C61.258 74.5992 61.5712 74.7069 61.8961 74.8395C62.2209 74.9687 62.5241 75.1394 62.8059 75.3516C63.0876 75.5604 63.3163 75.8222 63.4919 76.1371C63.6709 76.4519 63.7604 76.8298 63.7604 77.2706C63.7604 77.8175 63.6179 78.3097 63.3328 78.7472C63.0478 79.1847 62.6368 79.5327 62.0999 79.7912C61.5663 80.0464 60.9233 80.174 60.1709 80.174C59.465 80.174 58.8518 80.058 58.3314 79.826C57.8144 79.594 57.4067 79.2725 57.1084 78.8615C56.8134 78.4472 56.6477 77.9683 56.6113 77.4247H57.6851C57.7183 77.8191 57.8492 78.1506 58.0779 78.419C58.3099 78.6875 58.6065 78.8897 58.9678 79.0256C59.3324 79.1581 59.7334 79.2244 60.1709 79.2244C60.6648 79.2244 61.1056 79.1432 61.4934 78.9808C61.8811 78.8151 62.1861 78.5848 62.4081 78.2898C62.6335 77.9948 62.7462 77.6501 62.7462 77.2557C62.7462 76.9143 62.6551 76.6309 62.4728 76.4055C62.2905 76.1802 62.0419 75.9929 61.727 75.8438C61.4122 75.6946 61.0559 75.562 60.6581 75.446L59.4252 75.0881C58.6264 74.8561 58.0016 74.5296 57.5509 74.1087C57.1034 73.6844 56.8797 73.1392 56.8797 72.473C56.8797 71.9162 57.0289 71.429 57.3272 71.0114C57.6288 70.5904 58.0348 70.2623 58.5452 70.027C59.0556 69.7917 59.629 69.674 60.2654 69.674C60.9051 69.674 61.4735 69.7917 61.9706 70.027C62.4678 70.259 62.8622 70.5772 63.1539 70.9815C63.4455 71.3859 63.6013 71.8466 63.6212 72.3636H62.607Z" fill="#2AA6D6"/>
<path d="M75.1807 69.8182H76.2248V76.5597C76.2248 77.2557 76.0624 77.8755 75.7376 78.419C75.4127 78.9626 74.957 79.3918 74.3704 79.7067C73.787 80.0182 73.1059 80.174 72.327 80.174C71.5515 80.174 70.8704 80.0182 70.2837 79.7067C69.7004 79.3918 69.2463 78.9626 68.9215 78.419C68.5967 77.8722 68.4343 77.2524 68.4343 76.5597V69.8182H69.4783V76.4801C69.4783 77.0038 69.5943 77.4711 69.8263 77.8821C70.0617 78.2898 70.3914 78.6113 70.8157 78.8466C71.2432 79.0786 71.747 79.1946 72.327 79.1946C72.9104 79.1946 73.4158 79.0786 73.8434 78.8466C74.2709 78.6113 74.6007 78.2898 74.8327 77.8821C75.0647 77.4711 75.1807 77.0038 75.1807 76.4801V69.8182Z" fill="#2AA6D6"/>
<path d="M81.3771 80V69.8182H84.723C85.4754 69.8182 86.0985 69.959 86.5923 70.2408C87.0862 70.5192 87.4557 70.8987 87.701 71.3793C87.9496 71.8565 88.0739 72.3935 88.0739 72.9901C88.0739 73.5866 87.9512 74.1252 87.706 74.6058C87.4607 75.0864 87.0912 75.4692 86.5973 75.7543C86.1035 76.036 85.4837 76.1768 84.7379 76.1768H82.1975V75.2422H84.7081C85.245 75.2422 85.6859 75.1444 86.0306 74.9489C86.3753 74.75 86.6305 74.4815 86.7962 74.1435C86.9619 73.8054 87.0448 73.4209 87.0448 72.9901C87.0448 72.5592 86.9619 72.1747 86.7962 71.8366C86.6305 71.4986 86.3736 71.2334 86.0256 71.0412C85.6809 70.849 85.2368 70.7528 84.6932 70.7528H82.4212V80H81.3771Z" fill="#2AA6D6"/>
<path d="M92.3874 80V69.8182H95.7333C96.4857 69.8182 97.1088 69.959 97.6026 70.2408C98.0964 70.5192 98.466 70.8987 98.7113 71.3793C98.9598 71.8565 99.0841 72.3935 99.0841 72.9901C99.0841 73.5866 98.9615 74.1252 98.7162 74.6058C98.471 75.0864 98.1014 75.4692 97.6076 75.7543C97.1137 76.036 96.4939 76.1768 95.7482 76.1768H93.2077V75.2422H95.7184C96.2553 75.2422 96.6961 75.1444 97.0408 74.9489C97.3855 74.75 97.6407 74.4815 97.8064 74.1435C97.9722 73.8054 98.055 73.4209 98.055 72.9901C98.055 72.5592 97.9722 72.1747 97.8064 71.8366C97.6407 71.4986 97.3839 71.2334 97.0358 71.0412C96.6911 70.849 96.247 70.7528 95.7035 70.7528H93.4314V80H92.3874Z" fill="#2AA6D6"/>
<path d="M112.058 74.9091C112.058 75.9763 111.868 76.901 111.486 77.6832C111.105 78.4654 110.582 79.0703 109.915 79.4979C109.249 79.9254 108.485 80.1392 107.623 80.1392C106.762 80.1392 105.996 79.9254 105.327 79.4979C104.66 79.0703 104.137 78.4654 103.756 77.6832C103.374 76.901 103.184 75.9763 103.184 74.9091C103.184 73.8419 103.374 72.9171 103.756 72.1349C104.137 71.3527 104.66 70.7479 105.327 70.3203C105.996 69.8928 106.762 69.679 107.623 69.679C108.485 69.679 109.249 69.8928 109.915 70.3203C110.582 70.7479 111.105 71.3527 111.486 72.1349C111.868 72.9171 112.058 73.8419 112.058 74.9091ZM111.049 74.9091C111.049 74.0076 110.898 73.2403 110.596 72.6072C110.295 71.9742 109.886 71.492 109.368 71.1605C108.855 70.8258 108.273 70.6584 107.623 70.6584C106.974 70.6584 106.39 70.8241 105.873 71.1555C105.36 71.487 104.952 71.9709 104.65 72.6072C104.349 73.2403 104.198 74.0076 104.198 74.9091C104.198 75.8073 104.347 76.5746 104.645 77.2109C104.947 77.844 105.356 78.3279 105.873 78.6626C106.39 78.9941 106.974 79.1598 107.623 79.1598C108.273 79.1598 108.856 78.9941 109.373 78.6626C109.89 78.3279 110.298 77.844 110.596 77.2109C110.898 76.5779 111.049 75.8106 111.049 74.9091Z" fill="#2AA6D6"/>
<path d="M116.639 80V69.8182H119.985C120.734 69.8182 121.356 69.9508 121.85 70.2159C122.347 70.4777 122.718 70.8407 122.963 71.3047C123.212 71.7687 123.336 72.299 123.336 72.8956C123.336 73.4889 123.212 74.0159 122.963 74.4766C122.718 74.9339 122.348 75.2919 121.855 75.5504C121.361 75.8089 120.743 75.9382 120 75.9382H117.206V74.9886H119.97C120.507 74.9886 120.948 74.9041 121.293 74.7351C121.637 74.5627 121.893 74.3208 122.058 74.0092C122.224 73.6977 122.307 73.3265 122.307 72.8956C122.307 72.4647 122.222 72.0885 122.053 71.767C121.888 71.4455 121.631 71.197 121.283 71.0213C120.938 70.8423 120.496 70.7528 119.955 70.7528H117.683V80H116.639ZM121.243 75.4162L123.749 80H122.536L120.065 75.4162H121.243Z" fill="#2AA6D6"/>
<path d="M127.039 70.7528V69.8182H134.521V70.7528H131.305V80H130.261V70.7528H127.039Z" fill="#2AA6D6"/>
<path d="M148.017 73H146.968C146.895 72.6487 146.767 72.3305 146.585 72.0455C146.406 71.7604 146.184 71.5135 145.919 71.3047C145.654 71.0959 145.354 70.9368 145.019 70.8274C144.688 70.7147 144.335 70.6584 143.96 70.6584C143.327 70.6584 142.75 70.8224 142.23 71.1506C141.713 71.4754 141.3 71.9543 140.992 72.5874C140.687 73.2171 140.535 73.991 140.535 74.9091C140.535 75.8305 140.687 76.6077 140.992 77.2408C141.3 77.8705 141.713 78.3478 142.23 78.6726C142.75 78.9974 143.327 79.1598 143.96 79.1598C144.335 79.1598 144.688 79.1051 145.019 78.9957C145.354 78.883 145.654 78.724 145.919 78.5185C146.184 78.3097 146.406 78.0611 146.585 77.7727C146.767 77.4844 146.895 77.1662 146.968 76.8182H148.017C147.927 77.3054 147.765 77.7528 147.53 78.1605C147.298 78.5649 147.004 78.9162 146.65 79.2145C146.295 79.5095 145.891 79.7382 145.437 79.9006C144.983 80.0597 144.49 80.1392 143.96 80.1392C143.098 80.1392 142.333 79.9254 141.663 79.4979C140.997 79.0703 140.473 78.4654 140.092 77.6832C139.711 76.901 139.52 75.9763 139.52 74.9091C139.52 73.8419 139.711 72.9171 140.092 72.1349C140.473 71.3527 140.997 70.7479 141.663 70.3203C142.333 69.8928 143.098 69.679 143.96 69.679C144.49 69.679 144.983 69.7602 145.437 69.9226C145.891 70.0817 146.295 70.3104 146.65 70.6087C147.004 70.9036 147.298 71.2533 147.53 71.6577C147.765 72.062 147.927 72.5095 148.017 73Z" fill="#2AA6D6"/>
<path d="M153.024 80V69.8182H159.02V70.7528H154.068V74.4368H158.706V75.3665H154.068V79.0653H159.114V80H153.024Z" fill="#2AA6D6"/>
<path d="M172.017 69.8182V80H171.002L165.161 71.6776H165.076V80H164.032V69.8182H165.046L170.898 78.1555H170.987V69.8182H172.017Z" fill="#2AA6D6"/>
<path d="M176.228 70.7528V69.8182H183.71V70.7528H180.493V80H179.449V70.7528H176.228Z" fill="#2AA6D6"/>
<path d="M188.246 80V69.8182H191.591C192.34 69.8182 192.962 69.9508 193.456 70.2159C193.953 70.4777 194.324 70.8407 194.569 71.3047C194.818 71.7687 194.942 72.299 194.942 72.8956C194.942 73.4889 194.818 74.0159 194.569 74.4766C194.324 74.9339 193.955 75.2919 193.461 75.5504C192.967 75.8089 192.349 75.9382 191.606 75.9382H188.812V74.9886H191.577C192.113 74.9886 192.554 74.9041 192.899 74.7351C193.244 74.5627 193.499 74.3208 193.665 74.0092C193.83 73.6977 193.913 73.3265 193.913 72.8956C193.913 72.4647 193.829 72.0885 193.66 71.767C193.494 71.4455 193.237 71.197 192.889 71.0213C192.544 70.8423 192.102 70.7528 191.562 70.7528H189.29V80H188.246ZM192.849 75.4162L195.355 80H194.142L191.671 75.4162H192.849Z" fill="#2AA6D6"/>
<path d="M199.927 80V69.8182H205.922V70.7528H200.971V74.4368H205.609V75.3665H200.971V79.0653H206.017V80H199.927Z" fill="#2AA6D6"/>
</g>
<defs>
<clipPath id="clip0_6_4">
<rect width="216.195" height="83" rx="5" fill="white"/>
</clipPath>
</defs>
</svg>
