<svg width="30" height="30" viewBox="0 0 30 30" fill="none" xmlns="http://www.w3.org/2000/svg">
<path d="M15.5357 25.9286C21.7489 25.9286 26.7857 20.8918 26.7857 14.6786C26.7857 8.46539 21.7489 3.42859 15.5357 3.42859C9.3225 3.42859 4.28571 8.46539 4.28571 14.6786C4.28571 20.8918 9.3225 25.9286 15.5357 25.9286Z" stroke="white" stroke-linecap="round" stroke-linejoin="round"/>
<path d="M15.5357 15.9286C17.6068 15.9286 19.2857 14.2497 19.2857 12.1786C19.2857 10.1075 17.6068 8.42859 15.5357 8.42859C13.4646 8.42859 11.7857 10.1075 11.7857 12.1786C11.7857 14.2497 13.4646 15.9286 15.5357 15.9286Z" stroke="white" stroke-linecap="round" stroke-linejoin="round"/>
<path d="M8.2457 23.2398C8.55508 22.2101 9.18816 21.3076 10.051 20.6661C10.9139 20.0246 11.9605 19.6783 13.0357 19.6786H18.0357C19.1123 19.6782 20.1602 20.0253 21.0237 20.6683C21.8871 21.3113 22.52 22.2158 22.8282 23.2473" stroke="white" stroke-linecap="round" stroke-linejoin="round"/>
</svg>
