<svg width="156" height="31" viewBox="0 0 156 31" fill="none" xmlns="http://www.w3.org/2000/svg">
<path d="M14.0487 0H28.1003L21.076 14.9982L14.0487 30L7.02434 14.9982L0 0H14.0487Z" fill="#00A7E2"/>
<path d="M2.98895 0H5.97791L4.48343 3.19079L2.98895 6.38159L1.49448 3.19079L0 0H2.98895Z" fill="#143980"/>
<path d="M28.1005 16.4591H35.8087L31.9532 8.22774L28.1005 0L24.2479 8.22774L20.3923 16.4591H28.1005Z" fill="#143980"/>
<path d="M7.02434 30H14.0516L10.538 22.4991L7.02434 14.9982L3.51364 22.4991L0 30H7.02434Z" fill="#B9E5FB"/>
<path d="M49.3844 9.30025C49.915 9.41488 50.4414 9.54225 50.9679 9.68235C51.4601 9.80891 51.9326 10.0047 52.3717 10.264C52.773 10.5032 53.1136 10.8347 53.366 11.232C53.6402 11.704 53.7737 12.2467 53.7504 12.7944C53.7723 13.2888 53.6758 13.7812 53.4691 14.2294C53.2625 14.6775 52.9518 15.068 52.5638 15.3672C51.7742 15.9998 50.6671 16.2842 49.2507 16.2842C47.8344 16.2842 46.744 15.9785 45.946 15.3672C45.5598 15.0668 45.251 14.6759 45.0458 14.2279C44.8406 13.7799 44.7452 13.288 44.7678 12.7944H45.9335C45.9122 13.2259 46.0311 13.6525 46.2719 14.0086C46.4923 14.3078 46.7785 14.5505 47.1075 14.7176C47.45 14.8849 47.8168 14.9953 48.1937 15.0445C48.8865 15.1456 49.5899 15.1456 50.2827 15.0445C50.6597 14.9953 51.0264 14.8849 51.3689 14.7176C51.6952 14.5463 51.9805 14.3043 52.2045 14.0086C52.45 13.6544 52.572 13.2271 52.5513 12.7944C52.5611 12.4924 52.504 12.1921 52.3842 11.9155C52.2661 11.6754 52.0854 11.4728 51.8619 11.3296C51.5286 11.1331 51.172 10.9804 50.8007 10.8754C50.3579 10.7395 49.8064 10.6036 49.1296 10.4508C48.5948 10.3404 48.0684 10.2131 47.542 10.0729C47.0513 9.9456 46.5803 9.74986 46.1424 9.4913C45.7369 9.2506 45.3944 8.91421 45.1438 8.51057C44.8716 8.03633 44.7396 7.49243 44.7636 6.94395C44.7415 6.44915 44.837 5.95621 45.0421 5.50688C45.2472 5.05754 45.5558 4.66505 45.9418 4.36264C46.7273 3.74279 47.8261 3.43286 49.2466 3.43286C50.6671 3.43286 51.7533 3.74279 52.5555 4.36264C52.9441 4.66316 53.2551 5.05508 53.4618 5.5047C53.6685 5.95433 53.7646 6.44823 53.742 6.94395H52.5931C52.6145 6.51118 52.4924 6.08362 52.2463 5.72972C52.0253 5.4311 51.7393 5.18845 51.4107 5.02071C51.0691 4.85013 50.7021 4.73823 50.3245 4.68955C49.6317 4.58847 48.9283 4.58847 48.2355 4.68955C47.8579 4.73823 47.4908 4.85013 47.1492 5.02071C46.8202 5.18766 46.534 5.43045 46.3136 5.72972C46.1251 6.03958 46.0116 6.39053 45.9825 6.75368C45.9534 7.11682 46.0097 7.48179 46.1465 7.81855C46.2802 8.0745 46.4813 8.28764 46.7273 8.43415C47.0455 8.62954 47.3866 8.78358 47.7425 8.89268C48.2827 9.05654 48.8307 9.19257 49.3844 9.30025Z" fill="#2AA6D6"/>
<path d="M59.211 9.33436L64.6423 16.1655H63.1466L58.413 10.1962L56.9884 11.7161V16.1825H55.8269V3.55188H56.9884V10.0094L63.0297 3.55188H64.6215L59.211 9.33436Z" fill="#2AA6D6"/>
<path d="M71.5571 10.5995V16.1825H70.4123V10.5486L65.5994 3.55188H67.0115L70.9931 9.38531L74.9579 3.55188H76.3701L71.5571 10.5995Z" fill="#2AA6D6"/>
<path d="M102.147 3.54749L96.7532 15.9446C96.705 16.046 96.6297 16.1316 96.5358 16.1915C96.442 16.2514 96.3334 16.2831 96.2226 16.2831C96.1117 16.2831 96.0032 16.2514 95.9093 16.1915C95.8154 16.1316 95.7401 16.046 95.692 15.9446L93.3523 10.5654L91.0085 15.9446C90.9647 16.0486 90.891 16.1366 90.7971 16.1973C90.7031 16.2579 90.5933 16.2882 90.4821 16.2842C90.3667 16.2872 90.2531 16.2546 90.1562 16.1908C90.0643 16.1313 89.9917 16.0457 89.9473 15.9446L84.516 3.54749H85.8111L90.457 14.2421L92.7006 9.11769L91.6519 6.76988H92.9471L96.2058 14.2421L100.885 3.54749H102.147Z" fill="#2AA6D6"/>
<path d="M109.467 16.2843C108.561 16.3018 107.659 16.1581 106.801 15.8597C106.056 15.588 105.379 15.1532 104.817 14.5861C104.257 14.0166 103.829 13.3277 103.564 12.5694C102.984 10.816 102.984 8.91826 103.564 7.1648C103.828 6.40346 104.256 5.71162 104.817 5.13966C105.379 4.57254 106.056 4.13773 106.801 3.86598C108.532 3.28279 110.402 3.28279 112.133 3.86598C112.881 4.12954 113.56 4.5628 114.119 5.13291C114.678 5.70301 115.101 6.39498 115.358 7.15631C115.937 8.90977 115.937 10.8075 115.358 12.5609C115.1 13.3202 114.675 14.0101 114.116 14.5785C113.558 15.147 112.879 15.5793 112.133 15.8428C111.276 16.1469 110.374 16.2964 109.467 16.2843ZM109.467 4.61321C107.796 4.61321 106.515 5.06324 105.623 5.9633C104.732 6.86336 104.293 8.1611 104.307 9.8565C104.307 11.5547 104.746 12.8595 105.623 13.7709C106.501 14.6823 107.782 15.1323 109.467 15.121C111.138 15.121 112.418 14.671 113.307 13.7709C114.195 12.8709 114.635 11.5661 114.627 9.8565C114.627 8.15827 114.187 6.86053 113.307 5.9633C112.426 5.06607 111.147 4.61604 109.467 4.61321Z" fill="#2AA6D6"/>
<path d="M126.529 16.1825L122.498 11.0878H118.679V16.1825H117.513V4.15898C117.515 4.00354 117.575 3.85471 117.683 3.7444C117.791 3.63408 117.937 3.57106 118.09 3.56885H123.438C123.922 3.57657 124.4 3.68493 124.842 3.88727C125.269 4.0872 125.66 4.36163 125.995 4.69817C126.33 5.03788 126.596 5.44197 126.776 5.88693C127.14 6.77282 127.154 7.76677 126.818 8.66354C126.662 9.07372 126.438 9.45307 126.153 9.78438C125.873 10.114 125.54 10.3926 125.167 10.608C124.789 10.8288 124.372 10.973 123.939 11.0326L128.021 16.1782L126.529 16.1825ZM118.679 9.9075H123.363C123.7 9.90982 124.034 9.84191 124.344 9.70796C124.646 9.57547 124.921 9.38685 125.155 9.15179C125.387 8.91617 125.572 8.63815 125.702 8.33239C125.837 8.01638 125.906 7.67501 125.903 7.33043C125.905 6.98182 125.837 6.63646 125.702 6.31574C125.575 6.00956 125.389 5.73237 125.155 5.50058C124.921 5.26689 124.646 5.0797 124.344 4.94866C124.033 4.81672 123.7 4.74889 123.363 4.74912H118.683L118.679 9.9075Z" fill="#2AA6D6"/>
<path d="M137.648 15.0021L137.301 16.1823H130.048C129.97 16.1846 129.893 16.1699 129.82 16.1392C129.748 16.1084 129.684 16.0623 129.631 16.004C129.574 15.9498 129.529 15.8839 129.498 15.8107C129.468 15.7376 129.453 15.6588 129.455 15.5795V3.54749H130.617V15.0106L137.648 15.0021Z" fill="#2AA6D6"/>
<path d="M143.442 16.1823H140.434C140.356 16.1839 140.279 16.1692 140.207 16.1393C140.135 16.1094 140.07 16.0648 140.016 16.0083C139.961 15.9529 139.917 15.8867 139.888 15.8138C139.858 15.7408 139.844 15.6626 139.845 15.5837V4.11217C139.842 4.03312 139.856 3.95443 139.886 3.88126C139.915 3.80808 139.96 3.74209 140.016 3.68761C140.071 3.63305 140.137 3.59029 140.208 3.56185C140.28 3.53341 140.357 3.51987 140.434 3.52203H143.538C144.428 3.50725 145.313 3.65094 146.153 3.94659C146.888 4.20414 147.555 4.62811 148.104 5.18639C148.654 5.74467 149.071 6.42264 149.325 7.16898C149.617 8.0228 149.759 8.92266 149.742 9.82672C149.763 10.7214 149.621 11.6122 149.325 12.4547C149.052 13.2063 148.619 13.8876 148.058 14.4504C147.497 15.0131 146.821 15.4435 146.078 15.7111C145.235 16.0285 144.342 16.1881 143.442 16.1823ZM141.015 15.0021H143.442C145.088 15.0021 146.357 14.5549 147.248 13.6605C148.139 12.7661 148.585 11.4924 148.585 9.83945C148.585 8.16669 148.153 6.89302 147.29 6.01843C146.426 5.14384 145.173 4.70372 143.53 4.69806H141.023L141.015 15.0021Z" fill="#2AA6D6"/>
<path d="M45.3203 22.3636C45.2639 21.8201 45.017 21.3925 44.5795 21.081C44.142 20.7661 43.5984 20.6087 42.9488 20.6087C42.4815 20.6087 42.0722 20.6882 41.7208 20.8473C41.3728 21.0031 41.0994 21.2185 40.9005 21.4936C40.705 21.7654 40.6072 22.0769 40.6072 22.4283C40.6072 22.6967 40.6668 22.9304 40.7862 23.1293C40.9088 23.3281 41.0695 23.4972 41.2684 23.6364C41.4673 23.7723 41.6844 23.8883 41.9197 23.9844C42.155 24.0772 42.3854 24.1551 42.6107 24.218L43.6697 24.5163C43.9713 24.5992 44.2845 24.7069 44.6093 24.8395C44.9341 24.9687 45.2374 25.1394 45.5191 25.3516C45.8008 25.5604 46.0295 25.8222 46.2052 26.1371C46.3842 26.4519 46.4737 26.8298 46.4737 27.2706C46.4737 27.8175 46.3311 28.3097 46.0461 28.7472C45.7611 29.1847 45.3501 29.5327 44.8132 29.7912C44.2795 30.0464 43.6365 30.174 42.8842 30.174C42.1782 30.174 41.5651 30.058 41.0447 29.826C40.5276 29.594 40.12 29.2725 39.8217 28.8615C39.5267 28.4472 39.361 27.9683 39.3245 27.4247H40.3984C40.4315 27.8191 40.5624 28.1506 40.7911 28.419C41.0231 28.6875 41.3198 28.8897 41.6811 29.0256C42.0456 29.1581 42.4467 29.2244 42.8842 29.2244C43.378 29.2244 43.8188 29.1432 44.2066 28.9808C44.5944 28.8151 44.8993 28.5848 45.1214 28.2898C45.3468 27.9948 45.4595 27.6501 45.4595 27.2557C45.4595 26.9143 45.3683 26.6309 45.186 26.4055C45.0037 26.1802 44.7552 25.9929 44.4403 25.8438C44.1254 25.6946 43.7691 25.562 43.3714 25.446L42.1384 25.0881C41.3397 24.8561 40.7149 24.5296 40.2642 24.1087C39.8167 23.6844 39.593 23.1392 39.593 22.473C39.593 21.9162 39.7421 21.429 40.0404 21.0114C40.342 20.5904 40.7481 20.2623 41.2585 20.027C41.7689 19.7917 42.3423 19.674 42.9786 19.674C43.6183 19.674 44.1867 19.7917 44.6839 20.027C45.1811 20.259 45.5755 20.5772 45.8671 20.9815C46.1588 21.3859 46.3146 21.8466 46.3345 22.3636H45.3203Z" fill="#B9E5FB"/>
<path d="M55.0393 19.8182H56.0833V26.5597C56.0833 27.2557 55.9209 27.8755 55.5961 28.419C55.2713 28.9626 54.8155 29.3918 54.2289 29.7067C53.6456 30.0182 52.9645 30.174 52.1856 30.174C51.41 30.174 50.7289 30.0182 50.1422 29.7067C49.5589 29.3918 49.1048 28.9626 48.78 28.419C48.4552 27.8722 48.2928 27.2524 48.2928 26.5597V19.8182H49.3368V26.4801C49.3368 27.0038 49.4529 27.4711 49.6849 27.8821C49.9202 28.2898 50.25 28.6113 50.6742 28.8466C51.1018 29.0786 51.6055 29.1946 52.1856 29.1946C52.7689 29.1946 53.2743 29.0786 53.7019 28.8466C54.1295 28.6113 54.4592 28.2898 54.6913 27.8821C54.9233 27.4711 55.0393 27.0038 55.0393 26.4801V19.8182Z" fill="#B9E5FB"/>
<path d="M58.3803 30V19.8182H61.7262C62.4786 19.8182 63.1017 19.959 63.5955 20.2408C64.0894 20.5192 64.4589 20.8987 64.7042 21.3793C64.9528 21.8565 65.0771 22.3935 65.0771 22.9901C65.0771 23.5866 64.9544 24.1252 64.7092 24.6058C64.4639 25.0864 64.0943 25.4692 63.6005 25.7543C63.1067 26.036 62.4869 26.1768 61.7411 26.1768H59.2006V25.2422H61.7113C62.2482 25.2422 62.689 25.1444 63.0337 24.9489C63.3784 24.75 63.6336 24.4815 63.7994 24.1435C63.9651 23.8054 64.0479 23.4209 64.0479 22.9901C64.0479 22.5592 63.9651 22.1747 63.7994 21.8366C63.6336 21.4986 63.3768 21.2334 63.0288 21.0412C62.6841 20.849 62.2399 20.7528 61.6964 20.7528H59.4244V30H58.3803Z" fill="#B9E5FB"/>
<path d="M66.8017 30V19.8182H70.1476C70.9 19.8182 71.5231 19.959 72.0169 20.2408C72.5108 20.5192 72.8803 20.8987 73.1256 21.3793C73.3742 21.8565 73.4984 22.3935 73.4984 22.9901C73.4984 23.5866 73.3758 24.1252 73.1306 24.6058C72.8853 25.0864 72.5157 25.4692 72.0219 25.7543C71.528 26.036 70.9082 26.1768 70.1625 26.1768H67.622V25.2422H70.1327C70.6696 25.2422 71.1104 25.1444 71.4551 24.9489C71.7998 24.75 72.055 24.4815 72.2207 24.1435C72.3865 23.8054 72.4693 23.4209 72.4693 22.9901C72.4693 22.5592 72.3865 22.1747 72.2207 21.8366C72.055 21.4986 71.7982 21.2334 71.4502 21.0412C71.1055 20.849 70.6613 20.7528 70.1178 20.7528H67.8457V30H66.8017Z" fill="#B9E5FB"/>
<path d="M83.6177 24.9091C83.6177 25.9763 83.4271 26.901 83.0459 27.6832C82.6648 28.4654 82.1411 29.0703 81.4749 29.4979C80.8087 29.9254 80.0447 30.1392 79.183 30.1392C78.3213 30.1392 77.5556 29.9254 76.8861 29.4979C76.2199 29.0703 75.6963 28.4654 75.3151 27.6832C74.934 26.901 74.7434 25.9763 74.7434 24.9091C74.7434 23.8419 74.934 22.9171 75.3151 22.1349C75.6963 21.3527 76.2199 20.7479 76.8861 20.3203C77.5556 19.8928 78.3213 19.679 79.183 19.679C80.0447 19.679 80.8087 19.8928 81.4749 20.3203C82.1411 20.7479 82.6648 21.3527 83.0459 22.1349C83.4271 22.9171 83.6177 23.8419 83.6177 24.9091ZM82.6084 24.9091C82.6084 24.0076 82.4576 23.2403 82.156 22.6072C81.8544 21.9742 81.4451 21.492 80.928 21.1605C80.4143 20.8258 79.8326 20.6584 79.183 20.6584C78.5334 20.6584 77.9501 20.8241 77.433 21.1555C76.9193 21.487 76.5116 21.9709 76.21 22.6072C75.9084 23.2403 75.7576 24.0076 75.7576 24.9091C75.7576 25.8073 75.9067 26.5746 76.205 27.2109C76.5066 27.844 76.916 28.3279 77.433 28.6626C77.9501 28.9941 78.5334 29.1598 79.183 29.1598C79.8326 29.1598 80.416 28.9941 80.933 28.6626C81.4501 28.3279 81.8577 27.844 82.156 27.2109C82.4576 26.5779 82.6084 25.8106 82.6084 24.9091Z" fill="#B9E5FB"/>
<path d="M85.343 30V19.8182H88.6889C89.4379 19.8182 90.0594 19.9508 90.5532 20.2159C91.0504 20.4777 91.4216 20.8407 91.6668 21.3047C91.9154 21.7687 92.0397 22.299 92.0397 22.8956C92.0397 23.4889 91.9154 24.0159 91.6668 24.4766C91.4216 24.9339 91.052 25.2919 90.5582 25.5504C90.0643 25.8089 89.4462 25.9382 88.7038 25.9382H85.9097V24.9886H88.6739C89.2109 24.9886 89.6517 24.9041 89.9964 24.7351C90.3411 24.5627 90.5963 24.3208 90.762 24.0092C90.9277 23.6977 91.0106 23.3265 91.0106 22.8956C91.0106 22.4647 90.9261 22.0885 90.757 21.767C90.5913 21.4455 90.3345 21.197 89.9864 21.0213C89.6417 20.8423 89.1993 20.7528 88.659 20.7528H86.387V30H85.343ZM89.9467 25.4162L92.4523 30H91.2393L88.7684 25.4162H89.9467Z" fill="#B9E5FB"/>
<path d="M93.1546 20.7528V19.8182H100.637V20.7528H97.4202V30H96.3762V20.7528H93.1546Z" fill="#B9E5FB"/>
<path d="M111.086 23H110.037C109.964 22.6487 109.836 22.3305 109.654 22.0455C109.475 21.7604 109.253 21.5135 108.988 21.3047C108.723 21.0959 108.423 20.9368 108.088 20.8274C107.757 20.7147 107.404 20.6584 107.029 20.6584C106.396 20.6584 105.819 20.8224 105.299 21.1506C104.782 21.4754 104.369 21.9543 104.061 22.5874C103.756 23.2171 103.604 23.991 103.604 24.9091C103.604 25.8305 103.756 26.6077 104.061 27.2408C104.369 27.8705 104.782 28.3478 105.299 28.6726C105.819 28.9974 106.396 29.1598 107.029 29.1598C107.404 29.1598 107.757 29.1051 108.088 28.9957C108.423 28.883 108.723 28.724 108.988 28.5185C109.253 28.3097 109.475 28.0611 109.654 27.7727C109.836 27.4844 109.964 27.1662 110.037 26.8182H111.086C110.997 27.3054 110.834 27.7528 110.599 28.1605C110.367 28.5649 110.073 28.9162 109.719 29.2145C109.364 29.5095 108.96 29.7382 108.506 29.9006C108.052 30.0597 107.559 30.1392 107.029 30.1392C106.167 30.1392 105.402 29.9254 104.732 29.4979C104.066 29.0703 103.542 28.4654 103.161 27.6832C102.78 26.901 102.59 25.9763 102.59 24.9091C102.59 23.8419 102.78 22.9171 103.161 22.1349C103.542 21.3527 104.066 20.7479 104.732 20.3203C105.402 19.8928 106.167 19.679 107.029 19.679C107.559 19.679 108.052 19.7602 108.506 19.9226C108.96 20.0817 109.364 20.3104 109.719 20.6087C110.073 20.9036 110.367 21.2533 110.599 21.6577C110.834 22.062 110.997 22.5095 111.086 23Z" fill="#B9E5FB"/>
<path d="M113.238 30V19.8182H119.234V20.7528H114.282V24.4368H118.921V25.3665H114.282V29.0653H119.328V30H113.238Z" fill="#B9E5FB"/>
<path d="M129.374 19.8182V30H128.36L122.518 21.6776H122.434V30H121.39V19.8182H122.404L128.255 28.1555H128.345V19.8182H129.374Z" fill="#B9E5FB"/>
<path d="M130.777 20.7528V19.8182H138.259V20.7528H135.043V30H133.999V20.7528H130.777Z" fill="#B9E5FB"/>
<path d="M140.113 30V19.8182H143.459C144.208 19.8182 144.83 19.9508 145.323 20.2159C145.821 20.4777 146.192 20.8407 146.437 21.3047C146.686 21.7687 146.81 22.299 146.81 22.8956C146.81 23.4889 146.686 24.0159 146.437 24.4766C146.192 24.9339 145.822 25.2919 145.328 25.5504C144.835 25.8089 144.216 25.9382 143.474 25.9382H140.68V24.9886H143.444C143.981 24.9886 144.422 24.9041 144.767 24.7351C145.111 24.5627 145.367 24.3208 145.532 24.0092C145.698 23.6977 145.781 23.3265 145.781 22.8956C145.781 22.4647 145.696 22.0885 145.527 21.767C145.362 21.4455 145.105 21.197 144.757 21.0213C144.412 20.8423 143.97 20.7528 143.429 20.7528H141.157V30H140.113ZM144.717 25.4162L147.223 30H146.01L143.539 25.4162H144.717Z" fill="#B9E5FB"/>
<path d="M149.112 30V19.8182H155.108V20.7528H150.156V24.4368H154.795V25.3665H150.156V29.0653H155.203V30H149.112Z" fill="#B9E5FB"/>
</svg>
