<svg width="376" height="768" viewBox="0 0 376 768" fill="none" xmlns="http://www.w3.org/2000/svg">
<path fill-rule="evenodd" clip-rule="evenodd" d="M225.175 0L186.938 31.8645C150.825 63.729 112.008 137.271 137.5 201C162.992 265.379 250.667 319.946 288.904 384.325C325.017 448.054 276.158 511.783 276.158 576.163C276.158 639.892 325.017 704.271 350.508 736.135L376 768L0 768V736.135C0 704.271 0 639.892 0 576.163C0 511.783 0 448.054 0 384.325C0 319.946 0 256.217 0 191.837C0 128.108 0 63.729 0 31.8645V0L225.175 0Z" fill="#2AA6D6"/>
</svg>
