<svg width="376" height="768" viewBox="0 0 376 768" fill="none" xmlns="http://www.w3.org/2000/svg">
<path fill-rule="evenodd" clip-rule="evenodd" d="M150.825 768L189.062 736.135C225.175 704.271 263.992 630.729 238.5 567C213.008 502.621 125.333 448.054 87.096 383.675C50.9831 319.946 99.8418 256.217 99.8418 191.837C99.8418 128.108 50.9831 63.729 25.4915 31.8645L0 0H376V31.8645C376 63.729 376 128.108 376 191.837C376 256.217 376 319.946 376 383.675C376 448.054 376 511.783 376 576.163C376 639.892 376 704.271 376 736.135V768H150.825Z" fill="#003051"/>
</svg>
